<?xml version="1.0" standalone="no"?>
<!DOCTYPE svg PUBLIC "-//W3C//DTD SVG 20010904//EN"
 "http://www.w3.org/TR/2001/REC-SVG-20010904/DTD/svg10.dtd">
<svg version="1.0" xmlns="http://www.w3.org/2000/svg"
 width="1024.000000pt" height="1024.000000pt" viewBox="0 0 1024.000000 1024.000000"
 preserveAspectRatio="xMidYMid meet">
<metadata>
Created by potrace 1.11, written by Peter Selinger 2001-2013
</metadata>
<g transform="translate(0.000000,1024.000000) scale(0.100000,-0.100000)"
fill="#000000" stroke="none">
<path d="M0 5120 l0 -5120 5120 0 5120 0 0 5120 0 5120 -5120 0 -5120 0 0
-5120z m3463 2853 c264 -226 540 -522 734 -788 56 -78 223 -331 223 -340 0 -3
11 -22 23 -43 52 -81 149 -269 206 -394 80 -177 201 -489 201 -519 0 -8 4 -19
9 -25 6 -5 14 -27 20 -49 5 -22 18 -65 27 -95 16 -48 19 -102 22 -400 3 -346
-5 -513 -33 -645 -8 -38 -22 -106 -31 -150 -9 -44 -20 -93 -25 -110 -4 -16
-16 -57 -25 -90 -23 -81 -63 -202 -81 -245 -129 -296 -264 -494 -408 -597 -27
-20 -55 -42 -61 -50 -12 -14 -35 8 -114 107 -94 119 -397 426 -530 539 -111
94 -111 94 -192 155 l-75 56 -6 602 c-11 995 -9 3168 4 3168 5 0 56 -39 112
-87z m-748 -614 c55 -28 121 -64 148 -80 26 -16 51 -29 55 -29 5 0 18 -9 31
-21 l22 -21 -2 -1531 -1 -1532 22 -38 c14 -24 71 -74 159 -139 176 -131 255
-199 430 -371 190 -187 365 -394 525 -621 84 -118 156 -227 156 -236 0 -4 6
-13 14 -19 8 -7 22 -26 31 -44 9 -18 24 -44 33 -58 48 -74 84 -141 78 -146 -3
-3 -45 30 -93 73 -95 86 -283 237 -403 325 -79 58 -329 229 -335 229 -1 0 -27
16 -56 36 -30 20 -63 40 -74 45 -11 5 -27 13 -35 19 -130 84 -447 243 -675
338 -33 13 -79 33 -102 43 l-43 19 0 1905 c0 1048 4 1905 8 1905 4 0 53 -23
107 -51z m4905 -64 c0 -43 -4 -75 -10 -75 -5 0 -10 24 -10 54 l0 55 -36 -6
c-29 -5 -36 -3 -32 8 3 8 13 14 23 14 10 0 20 6 23 13 2 6 12 12 23 12 17 0
19 -8 19 -75z m-85 15 c3 -5 0 -10 -7 -11 -7 0 -21 -2 -30 -4 -10 -2 -18 3
-18 11 0 16 45 19 55 4z m-60 -30 c4 -6 -5 -10 -19 -10 -14 0 -26 5 -26 10 0
6 9 10 19 10 11 0 23 -4 26 -10z m-62 -27 c-7 -2 -19 -2 -25 0 -7 3 -2 5 12 5
14 0 19 -2 13 -5z m-48 -23 c3 -6 -4 -10 -17 -10 -18 0 -20 2 -8 10 19 12 18
12 25 0z m-5388 -480 c26 -5 91 -17 143 -26 52 -9 101 -22 109 -28 12 -9 13
-257 10 -1646 -4 -1530 -3 -1637 13 -1666 25 -45 67 -77 134 -103 121 -47 140
-54 171 -67 17 -8 34 -14 38 -14 3 0 32 -12 63 -26 31 -15 82 -38 112 -51 92
-42 329 -162 371 -188 21 -14 41 -25 44 -25 23 0 392 -242 560 -369 175 -131
420 -339 411 -348 -3 -3 -56 20 -119 51 -136 66 -224 106 -309 142 -35 14 -81
34 -103 44 -176 80 -648 244 -845 294 -14 4 -50 13 -80 22 -30 8 -86 22 -125
30 -38 9 -99 22 -135 30 -127 29 -372 70 -467 80 -40 3 -79 12 -88 18 -13 10
-15 227 -15 1926 0 1053 0 1918 0 1923 0 10 49 9 107 -3z m6402 -1447 c-1
-802 -5 -1667 -8 -1923 l-6 -465 -50 -11 c-27 -7 -75 -13 -105 -13 -30 -1 -77
-8 -104 -16 -27 -8 -64 -15 -82 -15 -32 0 -68 -6 -171 -31 -27 -7 -68 -15 -93
-20 -25 -4 -65 -13 -90 -19 -25 -7 -63 -16 -85 -22 -22 -5 -62 -15 -90 -23
-27 -8 -59 -16 -70 -19 -11 -2 -33 -9 -50 -15 -16 -5 -70 -22 -120 -36 -49
-15 -105 -33 -123 -41 -18 -8 -40 -14 -50 -14 -9 0 -26 -7 -36 -15 -11 -8 -30
-15 -42 -15 -13 0 -26 -4 -29 -10 -3 -5 -16 -10 -29 -10 -12 0 -31 -7 -42 -15
-10 -8 -27 -15 -36 -15 -9 0 -29 -6 -45 -14 -15 -8 -39 -19 -53 -24 -14 -5
-45 -17 -70 -27 -47 -18 -67 -27 -162 -69 -31 -15 -63 -26 -71 -26 -8 0 -20
-7 -27 -15 -7 -8 -18 -15 -25 -15 -13 0 -46 -15 -197 -91 -42 -22 -80 -39 -83
-39 -5 0 27 30 85 77 14 12 57 47 95 80 39 32 90 74 115 93 25 19 47 38 48 42
2 5 8 8 14 8 11 0 91 60 96 72 2 5 8 8 13 8 5 0 43 25 84 55 40 30 78 55 84
55 5 0 11 4 13 8 2 4 32 26 67 48 35 21 75 47 90 56 14 10 35 22 46 28 11 5
43 23 70 40 28 16 57 33 65 37 8 3 32 17 52 30 21 13 44 23 52 23 8 0 16 4 18
8 4 11 190 102 206 102 7 0 12 5 12 10 0 6 5 10 12 10 6 0 39 13 72 29 34 16
97 43 141 60 44 17 88 36 97 41 10 6 26 10 35 10 10 0 27 7 37 15 11 8 27 15
36 15 20 0 95 63 113 93 9 17 13 387 17 1677 l5 1655 45 7 c25 4 92 16 150 26
58 11 117 20 133 21 l27 1 -1 -1457z"/>
</g>
</svg>
